<svg width="18" height="18" viewBox="0 0 18 18" fill="none" xmlns="http://www.w3.org/2000/svg">
<path fill-rule="evenodd" clip-rule="evenodd" d="M9.05085 0.616653C13.6767 0.616653 17.4264 4.36639 17.4264 8.99221C17.4264 12.5937 15.1533 15.6642 11.9639 16.8468C11.9099 16.8764 11.8529 16.9 11.7938 16.9172L11.7143 16.9356C10.8557 17.2228 9.9562 17.3688 9.05085 17.3678C4.42503 17.3678 0.675293 13.618 0.675293 8.99221C0.675293 4.36639 4.42503 0.616653 9.05085 0.616653ZM11.4881 2.74907L11.3407 3.48696C11.2457 3.96187 11.0155 4.3992 10.6777 4.74631C10.34 5.09343 9.9091 5.33553 9.43696 5.44349L9.10111 5.52054C8.89278 5.56804 8.71048 5.69336 8.59153 5.87086C8.47257 6.04836 8.42595 6.26461 8.46121 6.47536L8.60778 7.35312C8.65448 7.63447 8.62857 7.92309 8.5325 8.19162C8.43644 8.46016 8.2734 8.69972 8.05884 8.88761C7.84427 9.0755 7.58529 9.2055 7.30642 9.26528C7.02756 9.32507 6.73805 9.31266 6.46532 9.22924L5.38487 8.89924C4.87023 8.74193 4.4197 8.42354 4.0996 7.99095C3.77949 7.55837 3.60673 7.03444 3.60674 6.4963V5.08501C2.81381 6.18906 2.37543 7.50817 2.34978 8.86721C2.32413 10.2263 2.71243 11.561 3.46313 12.6941C4.21383 13.8273 5.29142 14.7054 6.55286 15.2118C7.8143 15.7182 9.19993 15.8289 10.5258 15.5293L10.04 13.8274C10.0007 13.6906 9.92721 13.5661 9.82643 13.4656L8.78953 12.4279C8.66456 12.303 8.56734 12.1531 8.50422 11.9881C8.4411 11.823 8.4135 11.6466 8.42322 11.4701C8.43294 11.2937 8.47977 11.1213 8.56064 10.9642C8.64151 10.8071 8.75461 10.6689 8.89255 10.5584L10.2033 9.51066C10.4532 9.31075 10.7551 9.18661 11.0734 9.15292C11.3916 9.11922 11.7128 9.17739 11.999 9.32053L13.2303 9.93614C13.6002 10.1211 13.9187 10.3946 14.1576 10.7323C14.3965 11.0699 14.5483 11.4613 14.5997 11.8717L14.6918 12.6096C15.227 11.7746 15.5703 10.8313 15.6968 9.84761C15.8234 8.86392 15.73 7.86442 15.4236 6.92116C15.1171 5.9779 14.6052 5.11441 13.9246 4.39294C13.2441 3.67148 12.4119 3.11003 11.4881 2.74907ZM11.2494 10.8189L10.3047 11.5744L11.0116 12.2805C11.2696 12.5389 11.4683 12.8504 11.5937 13.1934L11.6506 13.3676L12.1054 14.9573C12.3986 14.8065 12.68 14.6348 12.9463 14.4447L13.2085 14.247L12.9379 12.0794C12.923 11.9601 12.8825 11.8453 12.8192 11.743C12.7559 11.6406 12.6713 11.5531 12.5711 11.4865L12.4806 11.4345L11.2494 10.8189ZM9.05085 2.29177C7.70424 2.28966 6.38854 2.69523 5.27682 3.45513C5.28018 3.48528 5.28185 3.51627 5.28185 3.5481V6.4963C5.28169 6.6757 5.33914 6.85042 5.44575 6.99472C5.55235 7.13902 5.70247 7.24527 5.874 7.29784L6.95529 7.62783L6.80871 6.75008C6.70337 6.11822 6.84333 5.46998 7.19999 4.93788C7.55665 4.40577 8.10307 4.02998 8.72756 3.88731L9.06342 3.81109C9.22099 3.77507 9.36478 3.69423 9.47743 3.5783C9.59008 3.46238 9.66679 3.31634 9.69828 3.1578L9.86244 2.34034C9.59313 2.3079 9.32211 2.29168 9.05085 2.29177Z" fill="#CCFF00"/>
</svg>
